<svg xmlns="http://www.w3.org/2000/svg" viewBox="0 0 32 32">
  <defs>
    <linearGradient id="bg" x1="0" y1="0" x2="32" y2="32" gradientUnits="userSpaceOnUse">
      <stop offset="0" stop-color="#6366f1"/>
      <stop offset="1" stop-color="#7c3aed"/>
    </linearGradient>
  </defs>
  <rect width="32" height="32" rx="7" fill="url(#bg)"/>
  <!-- bulb -->
  <path fill="#fff" d="M16 6.5a6.5 6.5 0 0 0-3.9 11.7c.6.45 1.02 1.1 1.18 1.83l.12.47h5.2l.12-.47c.16-.73.58-1.38 1.18-1.83A6.5 6.5 0 0 0 16 6.5Z"/>
  <!-- base -->
  <rect x="13.2" y="21.7" width="5.6" height="1.7" rx="0.85" fill="#fff" opacity="0.9"/>
  <rect x="13.8" y="24.1" width="4.4" height="1.6" rx="0.8" fill="#fff" opacity="0.75"/>
  <!-- spark rays -->
  <path stroke="#fff" stroke-width="1.4" stroke-linecap="round" opacity="0.85" d="M16 3.2v1.4M8.7 6.2l1 1M23.3 6.2l-1 1M6.2 13h1.4M24.4 13h1.4"/>
</svg>
